<?xml version="1.0" encoding="utf-8"?>
<!-- Generator: Adobe Illustrator 16.0.0, SVG Export Plug-In . SVG Version: 6.00 Build 0)  -->
<!DOCTYPE svg PUBLIC "-//W3C//DTD SVG 1.1//EN" "http://www.w3.org/Graphics/SVG/1.1/DTD/svg11.dtd">
<svg version="1.1" id="Layer_1" xmlns="http://www.w3.org/2000/svg" xmlns:xlink="http://www.w3.org/1999/xlink" x="0px" y="0px"
	 width="250px" height="100px" viewBox="0 0 250 100" enable-background="new 0 0 250 100" xml:space="preserve">
<g>
	<path fill="#222222" d="M55.754,67.759c2.552,0,3.827-0.729,3.827-2.278c0-1.23-2.095-2.231-6.242-2.962
		c-5.331-0.957-8.064-3.325-8.11-7.107c0-5.194,4.101-7.654,9.614-7.746c3.099,0,5.559,0.684,7.381,2.05
		c1.777,1.414,2.734,3.372,2.87,5.878h-3.827c-1.412-0.045-2.323-0.547-2.688-1.503c-0.41-1.049-1.64-1.64-3.645-1.64
		c-2.369,0-3.554,0.637-3.554,1.867s1.549,2.188,4.693,2.779c4.101,0.82,6.789,1.869,8.11,3.099
		c1.139,1.185,1.686,2.643,1.686,4.282c0,5.924-4.647,8.11-11.026,8.11c-3.371,0-5.923-0.729-7.563-2.141
		c-1.822-1.367-2.733-3.464-2.733-6.243h6.196C50.879,66.848,52.793,67.759,55.754,67.759z"/>
	<path fill="#222222" d="M74.115,78.557c0,2.006-1.002,3.007-3.007,3.007h-3.053V58.51c0.319-7.199,4.055-10.752,11.299-10.752
		c7.473,0,11.208,4.055,11.208,12.165c0,8.201-3.189,12.438-9.614,12.666c-3.007,0-5.285-1.229-6.834-3.735V78.557z M79.263,67.166
		c3.281,0,4.967-2.323,5.104-6.971c0-4.876-1.732-7.289-5.194-7.289s-5.103,2.413-5.057,7.289
		C74.297,64.843,75.982,67.166,79.263,67.166z"/>
	<path fill="#222222" d="M96.074,48.03c1.959,0,2.916,0.957,2.916,2.916v21.188h-6.06V48.03H96.074z"/>
	<path fill="#222222" d="M101.951,59.694c0.183-7.791,4.329-11.665,12.393-11.665h0.866v6.288h-2.05
		c-3.372,0-5.058,1.777-5.058,5.285v12.53h-6.151V59.694z"/>
	<path fill="#222222" d="M123.819,54.317h-6.06c0.729-4.465,3.873-6.652,9.432-6.652c6.652,0,10.024,2.188,10.16,6.652v8.201
		c0,6.652-4.009,9.614-10.525,10.069c-5.785,0.456-9.795-2.232-9.795-7.563c0.137-5.787,4.328-7.337,10.434-7.929
		c2.598-0.318,3.918-1.094,3.918-2.414c-0.136-1.368-1.412-2.052-3.918-2.052C125.323,52.631,124.139,53.18,123.819,54.317z
		 M131.475,62.246v-2.233c-1.412,0.593-3.054,1.094-4.83,1.458C124.23,61.927,123,63.066,123,64.843
		c0.136,1.913,1.139,2.824,3.053,2.824C129.424,67.667,131.475,65.662,131.475,62.246z"/>
	<path fill="#222222" d="M146.781,44.111v28.022h-6.061V41.15h3.145C145.459,41.15,146.781,42.517,146.781,44.111z"/>
	<path fill="#222222" d="M171.976,44.203v17.496c0,7.243-3.781,10.844-11.299,10.798c-7.473-0.137-11.208-4.191-11.208-12.212
		c0-8.2,3.188-12.392,9.613-12.62c3.006,0,5.33,1.23,6.88,3.737V41.15h3.008C170.609,41.15,171.976,42.563,171.976,44.203z
		 M155.711,60.013c-0.047,4.875,1.594,7.336,5.057,7.336s5.194-2.461,5.194-7.336c-0.137-4.646-1.823-6.926-5.103-6.926
		C157.578,53.087,155.893,55.366,155.711,60.013z"/>
	<path fill="#222222" d="M185.006,72.68c-7.29-0.228-10.936-4.466-10.936-12.667c0-8.2,3.689-12.302,11.025-12.348
		c7.655,0,11.255,4.692,10.799,14.125h-15.583c0.229,3.69,1.823,5.559,4.784,5.559c1.413,0,2.734-0.593,3.919-1.731
		c0.547-0.592,1.23-0.866,2.051-0.866h4.464C194.209,69.854,190.928,72.68,185.006,72.68z M180.404,57.462h9.065
		c-0.364-3.189-1.867-4.831-4.464-4.831C182.408,52.631,180.859,54.272,180.404,57.462z"/>
	<path fill="#222222" d="M208.787,67.759c2.552,0,3.827-0.729,3.827-2.278c0-1.23-2.097-2.231-6.242-2.962
		c-5.331-0.957-8.064-3.325-8.11-7.107c0-5.194,4.101-7.654,9.613-7.746c3.099,0,5.559,0.684,7.382,2.05
		c1.776,1.414,2.733,3.372,2.87,5.878h-3.828c-1.411-0.045-2.323-0.547-2.688-1.503c-0.409-1.049-1.64-1.64-3.645-1.64
		c-2.369,0-3.554,0.637-3.554,1.867s1.549,2.188,4.692,2.779c4.101,0.82,6.789,1.869,8.11,3.099
		c1.139,1.185,1.686,2.643,1.686,4.282c0,5.924-4.646,8.11-11.026,8.11c-3.371,0-5.923-0.729-7.563-2.141
		c-1.823-1.367-2.734-3.464-2.734-6.243h6.196C203.912,66.848,205.825,67.759,208.787,67.759z"/>
	<path fill="#222222" d="M227.146,44.111v13.351l7.473-8.566h7.289l-8.338,8.93L242,72.133h-7.29l-4.282-7.929
		c-0.775-1.366-1.55-2.05-2.324-2.05c-0.639,0.136-0.957,0.547-0.957,1.185v8.794h-6.06V41.15h3.144
		C225.825,41.15,227.146,42.517,227.146,44.111z"/>
</g>
<g>
	<g>
		<defs>
			<rect id="SVGID_1_" x="12.025" y="31.961" width="29.649" height="42.046"/>
		</defs>
		<clipPath id="SVGID_2_">
			<use xlink:href="#SVGID_1_"  overflow="visible"/>
		</clipPath>
		<g clip-path="url(#SVGID_2_)">
			<defs>
				<path id="SVGID_3_" d="M21.674,58.643c-8.191-5.548-12.015-17.587-8.112-26.681c3.876,4.338,10.572,6.701,15.333,10.045
					c10.139,7.122,16.011,21.701,10.901,32.001c0.301-4.313-2.918-7.171-6.609-9.422S25.253,61.067,21.674,58.643"/>
			</defs>
			<clipPath id="SVGID_4_">
				<use xlink:href="#SVGID_3_"  overflow="visible"/>
			</clipPath>
			
				<linearGradient id="SVGID_5_" gradientUnits="userSpaceOnUse" x1="-273.7676" y1="451.46" x2="-273.618" y2="451.46" gradientTransform="matrix(203.2637 141.7959 -141.7959 203.2637 119670.9688 -52906.25)">
				<stop  offset="0" style="stop-color:#F27436"/>
				<stop  offset="0.1821" style="stop-color:#F27736"/>
				<stop  offset="0.3711" style="stop-color:#F18034"/>
				<stop  offset="0.5633" style="stop-color:#F18E31"/>
				<stop  offset="0.7577" style="stop-color:#F1A129"/>
				<stop  offset="0.9521" style="stop-color:#F1BA1B"/>
				<stop  offset="0.957" style="stop-color:#F1BB1B"/>
				<stop  offset="1" style="stop-color:#F1BB1B"/>
			</linearGradient>
			<polygon clip-path="url(#SVGID_4_)" fill="url(#SVGID_5_)" points="-10.071,60.245 33.369,90.548 64.636,45.726 21.197,15.422 
							"/>
		</g>
	</g>
</g>
<g>
	<g>
		<defs>
			<rect id="SVGID_6_" x="25.051" y="58.1" width="16.62" height="28.334"/>
		</defs>
		<clipPath id="SVGID_7_">
			<use xlink:href="#SVGID_6_"  overflow="visible"/>
		</clipPath>
		<g clip-path="url(#SVGID_7_)">
			<defs>
				<path id="SVGID_8_" d="M35.64,79.331c-2.578,2.07-5.699,3.28-8.367,5.225c-0.745,0.541-1.458,1.175-2.095,1.878
					c1.025-1.351,1.533-3.319,1.609-5.521c0.098-2.87-0.542-6.137-1.736-8.953c1.22-1.948,2.722-3.704,4.476-5.165
					c3.421-2.849,8.237-5.123,10.954-8.695C43.021,65.645,41.534,74.589,35.64,79.331"/>
			</defs>
			<clipPath id="SVGID_9_">
				<use xlink:href="#SVGID_8_"  overflow="visible"/>
			</clipPath>
			
				<linearGradient id="SVGID_10_" gradientUnits="userSpaceOnUse" x1="-273.1108" y1="450.0957" x2="-272.9613" y2="450.0957" gradientTransform="matrix(-115.6919 123.7253 123.7253 115.6919 -87241.125 -18219.75)">
				<stop  offset="0" style="stop-color:#F1BB1B"/>
				<stop  offset="0.9516" style="stop-color:#BAC333"/>
				<stop  offset="1" style="stop-color:#BAC333"/>
			</linearGradient>
			<polygon clip-path="url(#SVGID_9_)" fill="url(#SVGID_10_)" points="57.156,71.316 34.638,95.398 10.916,73.217 33.434,49.134 
							"/>
		</g>
	</g>
</g>
<path fill="#FFFFFF" d="M24.876,71.239c-0.533-1.128-1.139-2.132-1.802-2.985c-1.553-2.001-3.526-3.65-5.435-5.246
	c-1.12-0.938-2.278-1.907-3.338-2.936c-2.019-1.958-5.313-5.914-4.677-10.4l-0.299-0.085C7.735,53.172,6.09,56.88,5.477,60.839
	c-0.692,4.461,0.124,8.534,2.3,11.472c2.034,2.744,5.143,4.398,8.148,6c0.346,0.183,0.69,0.367,1.032,0.551
	c2.541,1.373,5.924,3.745,7.613,7.25c0.091,0.19,0.161,0.346,0.222,0.496c0.026,0.056,0.048,0.111,0.071,0.168l0.098,0.241
	l0.168-0.199c1.105-1.309,1.735-3.326,1.821-5.835C27.056,77.857,26.281,74.215,24.876,71.239 M26.792,80.978
	c-0.08,2.321-0.641,4.384-1.784,5.738c-0.023-0.059-0.047-0.116-0.074-0.174c-0.069-0.168-0.145-0.334-0.223-0.498
	c-1.529-3.174-4.578-5.645-7.679-7.32c-3.317-1.79-6.884-3.479-9.129-6.507c-2.358-3.186-2.878-7.438-2.271-11.353
	c0.606-3.918,2.23-7.593,3.837-11.214c-0.561,3.958,1.853,7.751,4.723,10.536c2.869,2.784,6.308,5.007,8.758,8.164
	c0.672,0.866,1.271,1.87,1.785,2.957C26.134,74.271,26.898,77.858,26.792,80.978"/>
<g>
	<defs>
		<path id="SVGID_11_" d="M18.949,23.483c-6.597,6.529-9.076,17.512-4.569,26.363c-0.762-3.147,1.78-7.024,4.224-9.149
			c2.444-2.125,5.441-3.568,7.759-5.83c5.292-5.162,6.186-14.339,2.613-20.53C26.656,18.025,22.046,20.417,18.949,23.483"/>
	</defs>
	<clipPath id="SVGID_12_">
		<use xlink:href="#SVGID_11_"  overflow="visible"/>
	</clipPath>
	
		<linearGradient id="SVGID_13_" gradientUnits="userSpaceOnUse" x1="-272.5244" y1="451.3145" x2="-272.375" y2="451.3145" gradientTransform="matrix(-136.9064 134.6062 134.6062 136.9064 -98026.1953 -25084.75)">
		<stop  offset="0" style="stop-color:#EE2875"/>
		<stop  offset="1" style="stop-color:#F27436"/>
	</linearGradient>
	<polygon clip-path="url(#SVGID_12_)" fill="url(#SVGID_13_)" points="50.302,32.392 21.02,61.183 -7.879,31.791 21.404,3 	"/>
</g>
<g>
	<g>
		<defs>
			<rect id="SVGID_14_" x="5.394" y="49.586" width="21.403" height="37.051"/>
		</defs>
		<clipPath id="SVGID_15_">
			<use xlink:href="#SVGID_14_"  overflow="visible"/>
		</clipPath>
		<g clip-path="url(#SVGID_15_)">
			<defs>
				<path id="SVGID_16_" d="M26.787,80.913c-0.076,2.201-0.584,4.17-1.609,5.521c-0.062,0.067-0.121,0.135-0.18,0.203
					c-0.023-0.053-0.045-0.104-0.069-0.158c-0.069-0.169-0.144-0.334-0.223-0.498c-0.057-0.116-0.115-0.232-0.176-0.348
					c-1.579-3.007-4.517-5.358-7.503-6.974c-3.318-1.789-6.885-3.478-9.128-6.506C5.54,68.968,5.02,64.714,5.628,60.799
					c0.606-3.915,2.229-7.591,3.835-11.213c-0.561,3.959,1.855,7.753,4.724,10.534c2.869,2.785,6.306,5.008,8.758,8.166
					c0.673,0.865,1.27,1.869,1.784,2.956c0.111,0.236,0.219,0.476,0.321,0.718C26.245,74.776,26.885,78.043,26.787,80.913"/>
			</defs>
			<clipPath id="SVGID_17_">
				<use xlink:href="#SVGID_16_"  overflow="visible"/>
			</clipPath>
			
				<linearGradient id="SVGID_18_" gradientUnits="userSpaceOnUse" x1="-273.8213" y1="450.9297" x2="-273.672" y2="450.9297" gradientTransform="matrix(150.5746 215.3378 215.3378 -150.5746 -55866.5 126915.1563)">
				<stop  offset="0" style="stop-color:#BAC333"/>
				<stop  offset="0.9516" style="stop-color:#5BBB57"/>
				<stop  offset="1" style="stop-color:#5BBB57"/>
			</linearGradient>
			<polygon clip-path="url(#SVGID_17_)" fill="url(#SVGID_18_)" points="19.705,39.317 44.285,74.47 12.2,96.905 -12.381,61.753 			
				"/>
		</g>
	</g>
</g>
<g opacity="0.65">
	<g>
		<defs>
			<rect id="SVGID_19_" x="12.041" y="14.167" width="19.031" height="35.52"/>
		</defs>
		<clipPath id="SVGID_20_">
			<use xlink:href="#SVGID_19_"  overflow="visible"/>
		</clipPath>
		<g clip-path="url(#SVGID_20_)">
			<defs>
				<path id="SVGID_21_" d="M26.311,34.697c5.292-5.162,6.186-14.34,2.613-20.53c-2.321,3.689-6.931,6.081-10.028,9.146
					c-6.597,6.529-9.073,17.522-4.567,26.374c-0.762-3.147,1.778-7.035,4.222-9.16C20.995,38.403,23.992,36.959,26.311,34.697"/>
			</defs>
			<clipPath id="SVGID_22_">
				<use xlink:href="#SVGID_21_"  overflow="visible"/>
			</clipPath>
			<defs>
				<filter id="Adobe_OpacityMaskFilter" filterUnits="userSpaceOnUse" x="7.559" y="12.722" width="27.202" height="38.411">
					<feColorMatrix  type="matrix" values="1 0 0 0 0  0 1 0 0 0  0 0 1 0 0  0 0 0 1 0"/>
				</filter>
			</defs>
			<mask maskUnits="userSpaceOnUse" x="7.559" y="12.722" width="27.202" height="38.411" id="SVGID_23_">
				<g filter="url(#Adobe_OpacityMaskFilter)">
					
						<linearGradient id="SVGID_24_" gradientUnits="userSpaceOnUse" x1="-273.1445" y1="452.2461" x2="-272.9951" y2="452.2461" gradientTransform="matrix(-132.4644 8.4789 8.4789 132.4644 -39992.875 -57558.875)">
						<stop  offset="0" style="stop-color:#000000"/>
						<stop  offset="0.0976" style="stop-color:#030303"/>
						<stop  offset="0.1652" style="stop-color:#0C0C0C"/>
						<stop  offset="0.2237" style="stop-color:#1B1B1B"/>
						<stop  offset="0.2771" style="stop-color:#313131"/>
						<stop  offset="0.327" style="stop-color:#4D4D4D"/>
						<stop  offset="0.3744" style="stop-color:#707070"/>
						<stop  offset="0.4197" style="stop-color:#999999"/>
						<stop  offset="0.4625" style="stop-color:#C8C8C8"/>
						<stop  offset="0.5035" style="stop-color:#FCFCFC"/>
						<stop  offset="0.5054" style="stop-color:#FFFFFF"/>
						<stop  offset="0.5329" style="stop-color:#E7E7E7"/>
						<stop  offset="0.6068" style="stop-color:#AAAAAA"/>
						<stop  offset="0.6805" style="stop-color:#767676"/>
						<stop  offset="0.752" style="stop-color:#4C4C4C"/>
						<stop  offset="0.821" style="stop-color:#2B2B2B"/>
						<stop  offset="0.8867" style="stop-color:#131313"/>
						<stop  offset="0.9479" style="stop-color:#050505"/>
						<stop  offset="1" style="stop-color:#000000"/>
					</linearGradient>
					<polygon clip-path="url(#SVGID_22_)" fill="url(#SVGID_24_)" points="34.761,49.542 9.915,51.133 7.559,14.312 32.404,12.722 
											"/>
				</g>
			</mask>
			
				<linearGradient id="SVGID_25_" gradientUnits="userSpaceOnUse" x1="-273.1445" y1="452.2461" x2="-272.9951" y2="452.2461" gradientTransform="matrix(-132.4644 8.4789 8.4789 132.4644 -39992.875 -57558.875)">
				<stop  offset="0" style="stop-color:#F9F8F7"/>
				<stop  offset="0.5054" style="stop-color:#F9F8F7"/>
				<stop  offset="1" style="stop-color:#F9F8F7"/>
			</linearGradient>
			<polygon clip-path="url(#SVGID_22_)" mask="url(#SVGID_23_)" fill="url(#SVGID_25_)" points="34.761,49.542 9.915,51.133 
				7.559,14.312 32.404,12.722 			"/>
		</g>
	</g>
</g>
<path fill="#FFFFFF" d="M16.402,42.968c1.7-2.257,3.515-3.528,5.493-4.834c1.497-0.988,3.045-2.011,4.526-3.549
	c3.282-3.476,3.807-6.608,3.813-6.64l0.114,0.014c-0.006,0.033-0.498,3.224-3.813,6.734c-1.494,1.551-3.049,2.579-4.554,3.573
	c-1.965,1.297-3.82,2.523-5.451,4.795c-2.857,3.98-2.209,6.739-2.201,6.766C14.329,49.826,13.369,46.997,16.402,42.968"/>
<path fill="#FFFFFF" d="M39.8,74.009l-0.042,0.089c0.131-6.338-6.602-9.588-12.508-12.396c-1.969-0.937-3.829-1.82-5.271-2.755
	c-5.362-3.474-7.629-9.063-7.653-9.12l-0.029-0.144c0.023,0.056,2.448,5.687,7.768,9.132c1.433,0.929,3.288,1.811,5.252,2.746
	C33.266,64.389,40.151,67.572,39.8,74.009"/>
<g opacity="0.57">
	<g>
		<defs>
			<rect id="SVGID_26_" x="5.394" y="49.586" width="21.403" height="37.051"/>
		</defs>
		<clipPath id="SVGID_27_">
			<use xlink:href="#SVGID_26_"  overflow="visible"/>
		</clipPath>
		<g clip-path="url(#SVGID_27_)">
			<defs>
				<path id="SVGID_28_" d="M26.787,80.913c-0.076,2.201-0.584,4.17-1.609,5.521c-0.062,0.067-0.121,0.135-0.18,0.203
					c-0.023-0.053-0.045-0.104-0.069-0.158c-0.069-0.169-0.144-0.334-0.223-0.498c-0.057-0.116-0.115-0.232-0.176-0.348
					c-1.579-3.007-4.517-5.358-7.503-6.974c-3.318-1.789-6.885-3.478-9.128-6.506C5.54,68.968,5.02,64.714,5.628,60.799
					c0.606-3.915,2.229-7.591,3.835-11.213c-0.561,3.959,1.855,7.753,4.724,10.534c2.869,2.785,6.306,5.008,8.758,8.166
					c0.673,0.865,1.27,1.869,1.784,2.956c0.111,0.236,0.219,0.476,0.321,0.718C26.245,74.776,26.885,78.043,26.787,80.913"/>
			</defs>
			<clipPath id="SVGID_29_">
				<use xlink:href="#SVGID_28_"  overflow="visible"/>
			</clipPath>
			<defs>
				<filter id="Adobe_OpacityMaskFilter_1_" filterUnits="userSpaceOnUse" x="1.821" y="47.698" width="28.263" height="40.826">
					<feColorMatrix  type="matrix" values="1 0 0 0 0  0 1 0 0 0  0 0 1 0 0  0 0 0 1 0"/>
				</filter>
			</defs>
			<mask maskUnits="userSpaceOnUse" x="1.821" y="47.698" width="28.263" height="40.826" id="SVGID_30_">
				<g filter="url(#Adobe_OpacityMaskFilter_1_)">
					
						<linearGradient id="SVGID_31_" gradientUnits="userSpaceOnUse" x1="-275.0693" y1="451.6016" x2="-274.9197" y2="451.6016" gradientTransform="matrix(65.3606 -5.6854 -5.6854 -65.3606 20564.625 28020.9375)">
						<stop  offset="0" style="stop-color:#000000"/>
						<stop  offset="0.5054" style="stop-color:#FFFFFF"/>
						<stop  offset="0.5481" style="stop-color:#E8E8E8"/>
						<stop  offset="0.638" style="stop-color:#ACACAC"/>
						<stop  offset="0.7665" style="stop-color:#4C4C4C"/>
						<stop  offset="0.8637" style="stop-color:#000000"/>
						<stop  offset="1" style="stop-color:#000000"/>
					</linearGradient>
					<polygon clip-path="url(#SVGID_29_)" fill="url(#SVGID_31_)" points="1.821,49.864 26.721,47.698 30.084,86.359 5.184,88.524 
											"/>
				</g>
			</mask>
			
				<linearGradient id="SVGID_32_" gradientUnits="userSpaceOnUse" x1="-275.0693" y1="451.6016" x2="-274.9197" y2="451.6016" gradientTransform="matrix(65.3606 -5.6854 -5.6854 -65.3606 20564.625 28020.9375)">
				<stop  offset="0" style="stop-color:#F9F8F7"/>
				<stop  offset="0.5054" style="stop-color:#F9F8F7"/>
				<stop  offset="0.8637" style="stop-color:#F9F8F7"/>
				<stop  offset="1" style="stop-color:#F9F8F7"/>
			</linearGradient>
			<polygon clip-path="url(#SVGID_29_)" mask="url(#SVGID_30_)" fill="url(#SVGID_32_)" points="1.821,49.864 26.721,47.698 
				30.084,86.359 5.184,88.524 			"/>
		</g>
	</g>
</g>
<g>
	<path fill="#222222" d="M96.078,41.226c2.085,0,3.08,1.042,3.033,3.08v1.848h-6.302v-4.928H96.078z"/>
</g>
</svg>
